<mxfile host="app.diagrams.net" modified="2021-08-30T17:12:50.583Z" agent="5.0 (Windows NT 10.0; Win64; x64) AppleWebKit/537.36 (KHTML, like Gecko) Chrome/92.0.4515.159 Safari/537.36" etag="Wd4Mq0e9g_y1QrNzilJv" version="15.0.3" type="github">
  <diagram id="R15H3-MLOodroxPQ2j0e" name="Page-1">
    <mxGraphModel dx="1888" dy="579" grid="1" gridSize="10" guides="1" tooltips="1" connect="1" arrows="1" fold="1" page="1" pageScale="1" pageWidth="850" pageHeight="1100" math="0" shadow="0">
      <root>
        <mxCell id="0" />
        <mxCell id="1" parent="0" />
        <mxCell id="9CJe2XgVRx3kueUHRz7F-4" value="" style="shape=image;verticalLabelPosition=bottom;labelBackgroundColor=#ffffff;verticalAlign=top;aspect=fixed;imageAspect=0;image=data:image/png,iVBORw0KGgoAAAANSUhEUgAAAOIAAACMCAYAAABh7nX9AAAACXBIWXMAAAsSAAALEgHS3X78AAAFgUlEQVR42u3dP0wbBxiH4Z8jIEaC2B2SxlYhHoi3ij/ukAHJl6WqVKpGVYcMkcJADVKXbkhdIEOHDJWyxmKwqk5d7b221Ag6mKZDpHLNALQ9V21Qsc5DAoM70KAabAf7MHe+e5/NwWfj7/L6zr4zDtXrdQFw1yVGABAiAEIECBEAIQKECIAQAUIEQIgAIQIgRIAQARAi4F0DjMATDBfve1/SU1aBu0J8DMoT3FwJJZefCMCuKUCIADz7GnExVAzcWnjs4p7p7uakvkoFceYGIbaX5vnxAr20o8ycENGOWZS+vt3dssMR6daS9Od16dEjKZeTDIOZEiIuzOTH0sD70tKXUrXKPPoAb9b4yXBEuvet9N2+tPg5EbJFhCsRfvBY+miRANkiwtUI7xIhW8TzUwrgemj+ruVwVEqe4Q3NiXvdRxge3Zf0Mym4i1PcvKH7lbC9LU1NtY8wnT561zSRaPXEZ7AK2CLCifn51hFGIkcB3rnDnAixw030w1urgdscLm90t2AuJ5VKrSMsFo+2lm08/+f3xM3sp0Gc+SohtrfC8+MZra62j/QNEUrSH7W/bwR05p4KkXdN+1WxKO3sNP/Z/fvsjvYZQuxXuVz7143gNSLOcf/phzVJkjE+o+LupozxmaMN4sKstDCraHhEiUhM+y9rCg8M6Ze9HUnPZexeUXF3U9HwiKKXRzX/7ocMkxDRrQdP1nTjynUlIjE9eLImaeH439Nj08fXe/rXr1qa+kQPf/xGk9duHl8ncnlE1Vc1QmTXFL2UiMRV+u0nVV/VNPHWO6d+/sV7dxkSW0ScT2wxJSIxSdJ2taJoeOS/3dVUw/Vehzh1LcnQCNGZ+vJGKIDroeWZNa93P7erFaXHprVdtTRxaUzpsWkVd8tanf1Mxd1pTb2dVDQ8cnwdY3xG6bFpJSKxhl3YJrdfqi9vGKTgLk5x83iITRlG6wP5Kyvtjy+exilubBGbPTWEgvefws0nwxcvorp6NYgzLxJie9/z/Pimbdg5fkDl2bPJgM7cUy+BeNfUb5p/wgIeR4iECEIEQIiAR3BAvx+trLBrSohwXWfHCdEHOKDvkbRcvO9tSTlWASECgcebNQCvEbuXzWYNcRYOGt3OZDJFtogACBEgRACECBAiAEIECBEAIfbC4OAgQ2CuhOi2w8NDhsBcL5SvP32RyWQ6un4+n1elUjm+nEqllEqlOrqNbDbbcHlubk7xeLyv52hZlgqFQtezdbp8q9myRQRAiAAhAiBEgBABECLgV74+fJHP5zu6/t7eXsPlra0tWZbl6HdYX1/X0NBQX8/x4ODA0WydLk+Ife7/xwS7UavVVKvVHN3GybiZ7fksz66ph/X7lqdbQTt1zI+P11chNtsFCoKgnTrmx8fr613TTk9PM01Ttm0fX47FYh2fnlYulxsuJ5NJjY6O9uTxnbyvTh/vWdm2LdM0u74vp8u3eryE6NMQLctqCDEej3d8G81C7NW5phcVomVZjkJyunwQQuTwBUCIAAgRIEQAhAgQIgBCBAgRACEChAiAEAFCBECIACECIESAEAEQIkCIAAgRIEQAhAgQIgBCBAgRACEChAigG77+k/udfrfhyS+xsW3b8fcjMtvmX03HXAMUYqFQcLS8aZqnvrMB5zNbp8uzawqAEAFCDIigfvMwcyVETwnqNw8zV0IECBEAIQKEyAgAQgRAiAAhAiBEgBABECJAiAAIEfCeAUbQW6ZpqlKpXMh9lcvlntyubdusSELs/xAvSq9CBLumQCCE6vW6p36hbDZbZ7Wg1zKZTIgtIgBC9Bv+BAUhwgP4ExSECIAQAUIEQIgAIQIgRMBfPHdmDcAWEQAhAoQIgBABQgRAiAAhAiBEAIQIECKAI/8CxxiVb+OY1TMAAAAASUVORK5CYII=;" vertex="1" parent="1">
          <mxGeometry x="-650" y="929.47" width="130" height="80.53" as="geometry" />
        </mxCell>
        <mxCell id="9CJe2XgVRx3kueUHRz7F-5" value="" style="shape=image;verticalLabelPosition=bottom;labelBackgroundColor=#ffffff;verticalAlign=top;aspect=fixed;imageAspect=0;image=data:image/png,iVBORw0KGgoAAAANSUhEUgAAAOIAAACMCAYAAABh7nX9AAAACXBIWXMAAAsSAAALEgHS3X78AAAFgUlEQVR42u3dP0wbBxiH4Z8jIEaC2B2SxlYhHoi3ij/ukAHJl6WqVKpGVYcMkcJADVKXbkhdIEOHDJWyxmKwqk5d7b221Ag6mKZDpHLNALQ9V21Qsc5DAoM70KAabAf7MHe+e5/NwWfj7/L6zr4zDtXrdQFw1yVGABAiAEIECBEAIQKECIAQAUIEQIgAIQIgRIAQARAi4F0DjMATDBfve1/SU1aBu0J8DMoT3FwJJZefCMCuKUCIADz7GnExVAzcWnjs4p7p7uakvkoFceYGIbaX5vnxAr20o8ycENGOWZS+vt3dssMR6daS9Od16dEjKZeTDIOZEiIuzOTH0sD70tKXUrXKPPoAb9b4yXBEuvet9N2+tPg5EbJFhCsRfvBY+miRANkiwtUI7xIhW8TzUwrgemj+ruVwVEqe4Q3NiXvdRxge3Zf0Mym4i1PcvKH7lbC9LU1NtY8wnT561zSRaPXEZ7AK2CLCifn51hFGIkcB3rnDnAixw030w1urgdscLm90t2AuJ5VKrSMsFo+2lm08/+f3xM3sp0Gc+SohtrfC8+MZra62j/QNEUrSH7W/bwR05p4KkXdN+1WxKO3sNP/Z/fvsjvYZQuxXuVz7143gNSLOcf/phzVJkjE+o+LupozxmaMN4sKstDCraHhEiUhM+y9rCg8M6Ze9HUnPZexeUXF3U9HwiKKXRzX/7ocMkxDRrQdP1nTjynUlIjE9eLImaeH439Nj08fXe/rXr1qa+kQPf/xGk9duHl8ncnlE1Vc1QmTXFL2UiMRV+u0nVV/VNPHWO6d+/sV7dxkSW0ScT2wxJSIxSdJ2taJoeOS/3dVUw/Vehzh1LcnQCNGZ+vJGKIDroeWZNa93P7erFaXHprVdtTRxaUzpsWkVd8tanf1Mxd1pTb2dVDQ8cnwdY3xG6bFpJSKxhl3YJrdfqi9vGKTgLk5x83iITRlG6wP5Kyvtjy+exilubBGbPTWEgvefws0nwxcvorp6NYgzLxJie9/z/Pimbdg5fkDl2bPJgM7cUy+BeNfUb5p/wgIeR4iECEIEQIiAR3BAvx+trLBrSohwXWfHCdEHOKDvkbRcvO9tSTlWASECgcebNQCvEbuXzWYNcRYOGt3OZDJFtogACBEgRACECBAiAEIECBEAIfbC4OAgQ2CuhOi2w8NDhsBcL5SvP32RyWQ6un4+n1elUjm+nEqllEqlOrqNbDbbcHlubk7xeLyv52hZlgqFQtezdbp8q9myRQRAiAAhAiBEgBABECLgV74+fJHP5zu6/t7eXsPlra0tWZbl6HdYX1/X0NBQX8/x4ODA0WydLk+Ife7/xwS7UavVVKvVHN3GybiZ7fksz66ph/X7lqdbQTt1zI+P11chNtsFCoKgnTrmx8fr613TTk9PM01Ttm0fX47FYh2fnlYulxsuJ5NJjY6O9uTxnbyvTh/vWdm2LdM0u74vp8u3eryE6NMQLctqCDEej3d8G81C7NW5phcVomVZjkJyunwQQuTwBUCIAAgRIEQAhAgQIgBCBAgRACEChAiAEAFCBECIACECIESAEAEQIkCIAAgRIEQAhAgQIgBCBAgRACEChAigG77+k/udfrfhyS+xsW3b8fcjMtvmX03HXAMUYqFQcLS8aZqnvrMB5zNbp8uzawqAEAFCDIigfvMwcyVETwnqNw8zV0IECBEAIQKEyAgAQgRAiAAhAiBEgBABECJAiAAIEfCeAUbQW6ZpqlKpXMh9lcvlntyubdusSELs/xAvSq9CBLumQCCE6vW6p36hbDZbZ7Wg1zKZTIgtIgBC9Bv+BAUhwgP4ExSECIAQAUIEQIgAIQIgRMBfPHdmDcAWEQAhAoQIgBABQgRAiAAhAiBEAIQIECKAI/8CxxiVb+OY1TMAAAAASUVORK5CYII=;" vertex="1" parent="1">
          <mxGeometry x="-530" y="929.47" width="130" height="80.53" as="geometry" />
        </mxCell>
        <mxCell id="9CJe2XgVRx3kueUHRz7F-6" value="" style="shape=image;verticalLabelPosition=bottom;labelBackgroundColor=#ffffff;verticalAlign=top;aspect=fixed;imageAspect=0;image=data:image/png,iVBORw0KGgoAAAANSUhEUgAAAOIAAACMCAYAAABh7nX9AAAACXBIWXMAAAsSAAALEgHS3X78AAAFgUlEQVR42u3dP0wbBxiH4Z8jIEaC2B2SxlYhHoi3ij/ukAHJl6WqVKpGVYcMkcJADVKXbkhdIEOHDJWyxmKwqk5d7b221Ag6mKZDpHLNALQ9V21Qsc5DAoM70KAabAf7MHe+e5/NwWfj7/L6zr4zDtXrdQFw1yVGABAiAEIECBEAIQKECIAQAUIEQIgAIQIgRIAQARAi4F0DjMATDBfve1/SU1aBu0J8DMoT3FwJJZefCMCuKUCIADz7GnExVAzcWnjs4p7p7uakvkoFceYGIbaX5vnxAr20o8ycENGOWZS+vt3dssMR6daS9Od16dEjKZeTDIOZEiIuzOTH0sD70tKXUrXKPPoAb9b4yXBEuvet9N2+tPg5EbJFhCsRfvBY+miRANkiwtUI7xIhW8TzUwrgemj+ruVwVEqe4Q3NiXvdRxge3Zf0Mym4i1PcvKH7lbC9LU1NtY8wnT561zSRaPXEZ7AK2CLCifn51hFGIkcB3rnDnAixw030w1urgdscLm90t2AuJ5VKrSMsFo+2lm08/+f3xM3sp0Gc+SohtrfC8+MZra62j/QNEUrSH7W/bwR05p4KkXdN+1WxKO3sNP/Z/fvsjvYZQuxXuVz7143gNSLOcf/phzVJkjE+o+LupozxmaMN4sKstDCraHhEiUhM+y9rCg8M6Ze9HUnPZexeUXF3U9HwiKKXRzX/7ocMkxDRrQdP1nTjynUlIjE9eLImaeH439Nj08fXe/rXr1qa+kQPf/xGk9duHl8ncnlE1Vc1QmTXFL2UiMRV+u0nVV/VNPHWO6d+/sV7dxkSW0ScT2wxJSIxSdJ2taJoeOS/3dVUw/Vehzh1LcnQCNGZ+vJGKIDroeWZNa93P7erFaXHprVdtTRxaUzpsWkVd8tanf1Mxd1pTb2dVDQ8cnwdY3xG6bFpJSKxhl3YJrdfqi9vGKTgLk5x83iITRlG6wP5Kyvtjy+exilubBGbPTWEgvefws0nwxcvorp6NYgzLxJie9/z/Pimbdg5fkDl2bPJgM7cUy+BeNfUb5p/wgIeR4iECEIEQIiAR3BAvx+trLBrSohwXWfHCdEHOKDvkbRcvO9tSTlWASECgcebNQCvEbuXzWYNcRYOGt3OZDJFtogACBEgRACECBAiAEIECBEAIfbC4OAgQ2CuhOi2w8NDhsBcL5SvP32RyWQ6un4+n1elUjm+nEqllEqlOrqNbDbbcHlubk7xeLyv52hZlgqFQtezdbp8q9myRQRAiAAhAiBEgBABECLgV74+fJHP5zu6/t7eXsPlra0tWZbl6HdYX1/X0NBQX8/x4ODA0WydLk+Ife7/xwS7UavVVKvVHN3GybiZ7fksz66ph/X7lqdbQTt1zI+P11chNtsFCoKgnTrmx8fr613TTk9PM01Ttm0fX47FYh2fnlYulxsuJ5NJjY6O9uTxnbyvTh/vWdm2LdM0u74vp8u3eryE6NMQLctqCDEej3d8G81C7NW5phcVomVZjkJyunwQQuTwBUCIAAgRIEQAhAgQIgBCBAgRACEChAiAEAFCBECIACECIESAEAEQIkCIAAgRIEQAhAgQIgBCBAgRACEChAigG77+k/udfrfhyS+xsW3b8fcjMtvmX03HXAMUYqFQcLS8aZqnvrMB5zNbp8uzawqAEAFCDIigfvMwcyVETwnqNw8zV0IECBEAIQKEyAgAQgRAiAAhAiBEgBABECJAiAAIEfCeAUbQW6ZpqlKpXMh9lcvlntyubdusSELs/xAvSq9CBLumQCCE6vW6p36hbDZbZ7Wg1zKZTIgtIgBC9Bv+BAUhwgP4ExSECIAQAUIEQIgAIQIgRMBfPHdmDcAWEQAhAoQIgBABQgRAiAAhAiBEAIQIECKAI/8CxxiVb+OY1TMAAAAASUVORK5CYII=;" vertex="1" parent="1">
          <mxGeometry x="-320" y="929.47" width="130" height="80.53" as="geometry" />
        </mxCell>
        <mxCell id="9CJe2XgVRx3kueUHRz7F-7" value="" style="shape=image;verticalLabelPosition=bottom;labelBackgroundColor=#ffffff;verticalAlign=top;aspect=fixed;imageAspect=0;image=data:image/png,iVBORw0KGgoAAAANSUhEUgAAAOIAAACMCAYAAABh7nX9AAAACXBIWXMAAAsSAAALEgHS3X78AAAFgUlEQVR42u3dP0wbBxiH4Z8jIEaC2B2SxlYhHoi3ij/ukAHJl6WqVKpGVYcMkcJADVKXbkhdIEOHDJWyxmKwqk5d7b221Ag6mKZDpHLNALQ9V21Qsc5DAoM70KAabAf7MHe+e5/NwWfj7/L6zr4zDtXrdQFw1yVGABAiAEIECBEAIQKECIAQAUIEQIgAIQIgRIAQARAi4F0DjMATDBfve1/SU1aBu0J8DMoT3FwJJZefCMCuKUCIADz7GnExVAzcWnjs4p7p7uakvkoFceYGIbaX5vnxAr20o8ycENGOWZS+vt3dssMR6daS9Od16dEjKZeTDIOZEiIuzOTH0sD70tKXUrXKPPoAb9b4yXBEuvet9N2+tPg5EbJFhCsRfvBY+miRANkiwtUI7xIhW8TzUwrgemj+ruVwVEqe4Q3NiXvdRxge3Zf0Mym4i1PcvKH7lbC9LU1NtY8wnT561zSRaPXEZ7AK2CLCifn51hFGIkcB3rnDnAixw030w1urgdscLm90t2AuJ5VKrSMsFo+2lm08/+f3xM3sp0Gc+SohtrfC8+MZra62j/QNEUrSH7W/bwR05p4KkXdN+1WxKO3sNP/Z/fvsjvYZQuxXuVz7143gNSLOcf/phzVJkjE+o+LupozxmaMN4sKstDCraHhEiUhM+y9rCg8M6Ze9HUnPZexeUXF3U9HwiKKXRzX/7ocMkxDRrQdP1nTjynUlIjE9eLImaeH439Nj08fXe/rXr1qa+kQPf/xGk9duHl8ncnlE1Vc1QmTXFL2UiMRV+u0nVV/VNPHWO6d+/sV7dxkSW0ScT2wxJSIxSdJ2taJoeOS/3dVUw/Vehzh1LcnQCNGZ+vJGKIDroeWZNa93P7erFaXHprVdtTRxaUzpsWkVd8tanf1Mxd1pTb2dVDQ8cnwdY3xG6bFpJSKxhl3YJrdfqi9vGKTgLk5x83iITRlG6wP5Kyvtjy+exilubBGbPTWEgvefws0nwxcvorp6NYgzLxJie9/z/Pimbdg5fkDl2bPJgM7cUy+BeNfUb5p/wgIeR4iECEIEQIiAR3BAvx+trLBrSohwXWfHCdEHOKDvkbRcvO9tSTlWASECgcebNQCvEbuXzWYNcRYOGt3OZDJFtogACBEgRACECBAiAEIECBEAIfbC4OAgQ2CuhOi2w8NDhsBcL5SvP32RyWQ6un4+n1elUjm+nEqllEqlOrqNbDbbcHlubk7xeLyv52hZlgqFQtezdbp8q9myRQRAiAAhAiBEgBABECLgV74+fJHP5zu6/t7eXsPlra0tWZbl6HdYX1/X0NBQX8/x4ODA0WydLk+Ife7/xwS7UavVVKvVHN3GybiZ7fksz66ph/X7lqdbQTt1zI+P11chNtsFCoKgnTrmx8fr613TTk9PM01Ttm0fX47FYh2fnlYulxsuJ5NJjY6O9uTxnbyvTh/vWdm2LdM0u74vp8u3eryE6NMQLctqCDEej3d8G81C7NW5phcVomVZjkJyunwQQuTwBUCIAAgRIEQAhAgQIgBCBAgRACEChAiAEAFCBECIACECIESAEAEQIkCIAAgRIEQAhAgQIgBCBAgRACEChAigG77+k/udfrfhyS+xsW3b8fcjMtvmX03HXAMUYqFQcLS8aZqnvrMB5zNbp8uzawqAEAFCDIigfvMwcyVETwnqNw8zV0IECBEAIQKEyAgAQgRAiAAhAiBEgBABECJAiAAIEfCeAUbQW6ZpqlKpXMh9lcvlntyubdusSELs/xAvSq9CBLumQCCE6vW6p36hbDZbZ7Wg1zKZTIgtIgBC9Bv+BAUhwgP4ExSECIAQAUIEQIgAIQIgRMBfPHdmDcAWEQAhAoQIgBABQgRAiAAhAiBEAIQIECKAI/8CxxiVb+OY1TMAAAAASUVORK5CYII=;" vertex="1" parent="1">
          <mxGeometry x="-210" y="929.47" width="130" height="80.53" as="geometry" />
        </mxCell>
        <mxCell id="9CJe2XgVRx3kueUHRz7F-8" value="" style="shape=image;verticalLabelPosition=bottom;labelBackgroundColor=#ffffff;verticalAlign=top;aspect=fixed;imageAspect=0;image=data:image/png,iVBORw0KGgoAAAANSUhEUgAAAOIAAACMCAYAAABh7nX9AAAACXBIWXMAAAsSAAALEgHS3X78AAAFgUlEQVR42u3dP0wbBxiH4Z8jIEaC2B2SxlYhHoi3ij/ukAHJl6WqVKpGVYcMkcJADVKXbkhdIEOHDJWyxmKwqk5d7b221Ag6mKZDpHLNALQ9V21Qsc5DAoM70KAabAf7MHe+e5/NwWfj7/L6zr4zDtXrdQFw1yVGABAiAEIECBEAIQKECIAQAUIEQIgAIQIgRIAQARAi4F0DjMATDBfve1/SU1aBu0J8DMoT3FwJJZefCMCuKUCIADz7GnExVAzcWnjs4p7p7uakvkoFceYGIbaX5vnxAr20o8ycENGOWZS+vt3dssMR6daS9Od16dEjKZeTDIOZEiIuzOTH0sD70tKXUrXKPPoAb9b4yXBEuvet9N2+tPg5EbJFhCsRfvBY+miRANkiwtUI7xIhW8TzUwrgemj+ruVwVEqe4Q3NiXvdRxge3Zf0Mym4i1PcvKH7lbC9LU1NtY8wnT561zSRaPXEZ7AK2CLCifn51hFGIkcB3rnDnAixw030w1urgdscLm90t2AuJ5VKrSMsFo+2lm08/+f3xM3sp0Gc+SohtrfC8+MZra62j/QNEUrSH7W/bwR05p4KkXdN+1WxKO3sNP/Z/fvsjvYZQuxXuVz7143gNSLOcf/phzVJkjE+o+LupozxmaMN4sKstDCraHhEiUhM+y9rCg8M6Ze9HUnPZexeUXF3U9HwiKKXRzX/7ocMkxDRrQdP1nTjynUlIjE9eLImaeH439Nj08fXe/rXr1qa+kQPf/xGk9duHl8ncnlE1Vc1QmTXFL2UiMRV+u0nVV/VNPHWO6d+/sV7dxkSW0ScT2wxJSIxSdJ2taJoeOS/3dVUw/Vehzh1LcnQCNGZ+vJGKIDroeWZNa93P7erFaXHprVdtTRxaUzpsWkVd8tanf1Mxd1pTb2dVDQ8cnwdY3xG6bFpJSKxhl3YJrdfqi9vGKTgLk5x83iITRlG6wP5Kyvtjy+exilubBGbPTWEgvefws0nwxcvorp6NYgzLxJie9/z/Pimbdg5fkDl2bPJgM7cUy+BeNfUb5p/wgIeR4iECEIEQIiAR3BAvx+trLBrSohwXWfHCdEHOKDvkbRcvO9tSTlWASECgcebNQCvEbuXzWYNcRYOGt3OZDJFtogACBEgRACECBAiAEIECBEAIfbC4OAgQ2CuhOi2w8NDhsBcL5SvP32RyWQ6un4+n1elUjm+nEqllEqlOrqNbDbbcHlubk7xeLyv52hZlgqFQtezdbp8q9myRQRAiAAhAiBEgBABECLgV74+fJHP5zu6/t7eXsPlra0tWZbl6HdYX1/X0NBQX8/x4ODA0WydLk+Ife7/xwS7UavVVKvVHN3GybiZ7fksz66ph/X7lqdbQTt1zI+P11chNtsFCoKgnTrmx8fr613TTk9PM01Ttm0fX47FYh2fnlYulxsuJ5NJjY6O9uTxnbyvTh/vWdm2LdM0u74vp8u3eryE6NMQLctqCDEej3d8G81C7NW5phcVomVZjkJyunwQQuTwBUCIAAgRIEQAhAgQIgBCBAgRACEChAiAEAFCBECIACECIESAEAEQIkCIAAgRIEQAhAgQIgBCBAgRACEChAigG77+k/udfrfhyS+xsW3b8fcjMtvmX03HXAMUYqFQcLS8aZqnvrMB5zNbp8uzawqAEAFCDIigfvMwcyVETwnqNw8zV0IECBEAIQKEyAgAQgRAiAAhAiBEgBABECJAiAAIEfCeAUbQW6ZpqlKpXMh9lcvlntyubdusSELs/xAvSq9CBLumQCCE6vW6p36hbDZbZ7Wg1zKZTIgtIgBC9Bv+BAUhwgP4ExSECIAQAUIEQIgAIQIgRMBfPHdmDcAWEQAhAoQIgBABQgRAiAAhAiBEAIQIECKAI/8CxxiVb+OY1TMAAAAASUVORK5CYII=;" vertex="1" parent="1">
          <mxGeometry x="-770" y="929.47" width="130" height="80.53" as="geometry" />
        </mxCell>
        <mxCell id="9CJe2XgVRx3kueUHRz7F-9" value="" style="shape=image;verticalLabelPosition=bottom;labelBackgroundColor=#ffffff;verticalAlign=top;aspect=fixed;imageAspect=0;image=data:image/png,iVBORw0KGgoAAAANSUhEUgAAAOIAAACMCAYAAABh7nX9AAAACXBIWXMAAAsSAAALEgHS3X78AAAFgUlEQVR42u3dP0wbBxiH4Z8jIEaC2B2SxlYhHoi3ij/ukAHJl6WqVKpGVYcMkcJADVKXbkhdIEOHDJWyxmKwqk5d7b221Ag6mKZDpHLNALQ9V21Qsc5DAoM70KAabAf7MHe+e5/NwWfj7/L6zr4zDtXrdQFw1yVGABAiAEIECBEAIQKECIAQAUIEQIgAIQIgRIAQARAi4F0DjMATDBfve1/SU1aBu0J8DMoT3FwJJZefCMCuKUCIADz7GnExVAzcWnjs4p7p7uakvkoFceYGIbaX5vnxAr20o8ycENGOWZS+vt3dssMR6daS9Od16dEjKZeTDIOZEiIuzOTH0sD70tKXUrXKPPoAb9b4yXBEuvet9N2+tPg5EbJFhCsRfvBY+miRANkiwtUI7xIhW8TzUwrgemj+ruVwVEqe4Q3NiXvdRxge3Zf0Mym4i1PcvKH7lbC9LU1NtY8wnT561zSRaPXEZ7AK2CLCifn51hFGIkcB3rnDnAixw030w1urgdscLm90t2AuJ5VKrSMsFo+2lm08/+f3xM3sp0Gc+SohtrfC8+MZra62j/QNEUrSH7W/bwR05p4KkXdN+1WxKO3sNP/Z/fvsjvYZQuxXuVz7143gNSLOcf/phzVJkjE+o+LupozxmaMN4sKstDCraHhEiUhM+y9rCg8M6Ze9HUnPZexeUXF3U9HwiKKXRzX/7ocMkxDRrQdP1nTjynUlIjE9eLImaeH439Nj08fXe/rXr1qa+kQPf/xGk9duHl8ncnlE1Vc1QmTXFL2UiMRV+u0nVV/VNPHWO6d+/sV7dxkSW0ScT2wxJSIxSdJ2taJoeOS/3dVUw/Vehzh1LcnQCNGZ+vJGKIDroeWZNa93P7erFaXHprVdtTRxaUzpsWkVd8tanf1Mxd1pTb2dVDQ8cnwdY3xG6bFpJSKxhl3YJrdfqi9vGKTgLk5x83iITRlG6wP5Kyvtjy+exilubBGbPTWEgvefws0nwxcvorp6NYgzLxJie9/z/Pimbdg5fkDl2bPJgM7cUy+BeNfUb5p/wgIeR4iECEIEQIiAR3BAvx+trLBrSohwXWfHCdEHOKDvkbRcvO9tSTlWASECgcebNQCvEbuXzWYNcRYOGt3OZDJFtogACBEgRACECBAiAEIECBEAIfbC4OAgQ2CuhOi2w8NDhsBcL5SvP32RyWQ6un4+n1elUjm+nEqllEqlOrqNbDbbcHlubk7xeLyv52hZlgqFQtezdbp8q9myRQRAiAAhAiBEgBABECLgV74+fJHP5zu6/t7eXsPlra0tWZbl6HdYX1/X0NBQX8/x4ODA0WydLk+Ife7/xwS7UavVVKvVHN3GybiZ7fksz66ph/X7lqdbQTt1zI+P11chNtsFCoKgnTrmx8fr613TTk9PM01Ttm0fX47FYh2fnlYulxsuJ5NJjY6O9uTxnbyvTh/vWdm2LdM0u74vp8u3eryE6NMQLctqCDEej3d8G81C7NW5phcVomVZjkJyunwQQuTwBUCIAAgRIEQAhAgQIgBCBAgRACEChAiAEAFCBECIACECIESAEAEQIkCIAAgRIEQAhAgQIgBCBAgRACEChAigG77+k/udfrfhyS+xsW3b8fcjMtvmX03HXAMUYqFQcLS8aZqnvrMB5zNbp8uzawqAEAFCDIigfvMwcyVETwnqNw8zV0IECBEAIQKEyAgAQgRAiAAhAiBEgBABECJAiAAIEfCeAUbQW6ZpqlKpXMh9lcvlntyubdusSELs/xAvSq9CBLumQCCE6vW6p36hbDZbZ7Wg1zKZTIgtIgBC9Bv+BAUhwgP4ExSECIAQAUIEQIgAIQIgRMBfPHdmDcAWEQAhAoQIgBABQgRAiAAhAiBEAIQIECKAI/8CxxiVb+OY1TMAAAAASUVORK5CYII=;" vertex="1" parent="1">
          <mxGeometry x="30" y="929.47" width="130" height="80.53" as="geometry" />
        </mxCell>
        <mxCell id="9CJe2XgVRx3kueUHRz7F-10" value="" style="shape=image;verticalLabelPosition=bottom;labelBackgroundColor=#ffffff;verticalAlign=top;aspect=fixed;imageAspect=0;image=data:image/png,iVBORw0KGgoAAAANSUhEUgAAAOIAAACMCAYAAABh7nX9AAAACXBIWXMAAAsSAAALEgHS3X78AAAFgUlEQVR42u3dP0wbBxiH4Z8jIEaC2B2SxlYhHoi3ij/ukAHJl6WqVKpGVYcMkcJADVKXbkhdIEOHDJWyxmKwqk5d7b221Ag6mKZDpHLNALQ9V21Qsc5DAoM70KAabAf7MHe+e5/NwWfj7/L6zr4zDtXrdQFw1yVGABAiAEIECBEAIQKECIAQAUIEQIgAIQIgRIAQARAi4F0DjMATDBfve1/SU1aBu0J8DMoT3FwJJZefCMCuKUCIADz7GnExVAzcWnjs4p7p7uakvkoFceYGIbaX5vnxAr20o8ycENGOWZS+vt3dssMR6daS9Od16dEjKZeTDIOZEiIuzOTH0sD70tKXUrXKPPoAb9b4yXBEuvet9N2+tPg5EbJFhCsRfvBY+miRANkiwtUI7xIhW8TzUwrgemj+ruVwVEqe4Q3NiXvdRxge3Zf0Mym4i1PcvKH7lbC9LU1NtY8wnT561zSRaPXEZ7AK2CLCifn51hFGIkcB3rnDnAixw030w1urgdscLm90t2AuJ5VKrSMsFo+2lm08/+f3xM3sp0Gc+SohtrfC8+MZra62j/QNEUrSH7W/bwR05p4KkXdN+1WxKO3sNP/Z/fvsjvYZQuxXuVz7143gNSLOcf/phzVJkjE+o+LupozxmaMN4sKstDCraHhEiUhM+y9rCg8M6Ze9HUnPZexeUXF3U9HwiKKXRzX/7ocMkxDRrQdP1nTjynUlIjE9eLImaeH439Nj08fXe/rXr1qa+kQPf/xGk9duHl8ncnlE1Vc1QmTXFL2UiMRV+u0nVV/VNPHWO6d+/sV7dxkSW0ScT2wxJSIxSdJ2taJoeOS/3dVUw/Vehzh1LcnQCNGZ+vJGKIDroeWZNa93P7erFaXHprVdtTRxaUzpsWkVd8tanf1Mxd1pTb2dVDQ8cnwdY3xG6bFpJSKxhl3YJrdfqi9vGKTgLk5x83iITRlG6wP5Kyvtjy+exilubBGbPTWEgvefws0nwxcvorp6NYgzLxJie9/z/Pimbdg5fkDl2bPJgM7cUy+BeNfUb5p/wgIeR4iECEIEQIiAR3BAvx+trLBrSohwXWfHCdEHOKDvkbRcvO9tSTlWASECgcebNQCvEbuXzWYNcRYOGt3OZDJFtogACBEgRACECBAiAEIECBEAIfbC4OAgQ2CuhOi2w8NDhsBcL5SvP32RyWQ6un4+n1elUjm+nEqllEqlOrqNbDbbcHlubk7xeLyv52hZlgqFQtezdbp8q9myRQRAiAAhAiBEgBABECLgV74+fJHP5zu6/t7eXsPlra0tWZbl6HdYX1/X0NBQX8/x4ODA0WydLk+Ife7/xwS7UavVVKvVHN3GybiZ7fksz66ph/X7lqdbQTt1zI+P11chNtsFCoKgnTrmx8fr613TTk9PM01Ttm0fX47FYh2fnlYulxsuJ5NJjY6O9uTxnbyvTh/vWdm2LdM0u74vp8u3eryE6NMQLctqCDEej3d8G81C7NW5phcVomVZjkJyunwQQuTwBUCIAAgRIEQAhAgQIgBCBAgRACEChAiAEAFCBECIACECIESAEAEQIkCIAAgRIEQAhAgQIgBCBAgRACEChAigG77+k/udfrfhyS+xsW3b8fcjMtvmX03HXAMUYqFQcLS8aZqnvrMB5zNbp8uzawqAEAFCDIigfvMwcyVETwnqNw8zV0IECBEAIQKEyAgAQgRAiAAhAiBEgBABECJAiAAIEfCeAUbQW6ZpqlKpXMh9lcvlntyubdusSELs/xAvSq9CBLumQCCE6vW6p36hbDZbZ7Wg1zKZTIgtIgBC9Bv+BAUhwgP4ExSECIAQAUIEQIgAIQIgRMBfPHdmDcAWEQAhAoQIgBABQgRAiAAhAiBEAIQIECKAI/8CxxiVb+OY1TMAAAAASUVORK5CYII=;" vertex="1" parent="1">
          <mxGeometry x="150" y="929.47" width="130" height="80.53" as="geometry" />
        </mxCell>
        <mxCell id="9CJe2XgVRx3kueUHRz7F-11" value="" style="shape=image;verticalLabelPosition=bottom;labelBackgroundColor=#ffffff;verticalAlign=top;aspect=fixed;imageAspect=0;image=data:image/png,iVBORw0KGgoAAAANSUhEUgAAAOIAAACMCAYAAABh7nX9AAAACXBIWXMAAAsSAAALEgHS3X78AAAFgUlEQVR42u3dP0wbBxiH4Z8jIEaC2B2SxlYhHoi3ij/ukAHJl6WqVKpGVYcMkcJADVKXbkhdIEOHDJWyxmKwqk5d7b221Ag6mKZDpHLNALQ9V21Qsc5DAoM70KAabAf7MHe+e5/NwWfj7/L6zr4zDtXrdQFw1yVGABAiAEIECBEAIQKECIAQAUIEQIgAIQIgRIAQARAi4F0DjMATDBfve1/SU1aBu0J8DMoT3FwJJZefCMCuKUCIADz7GnExVAzcWnjs4p7p7uakvkoFceYGIbaX5vnxAr20o8ycENGOWZS+vt3dssMR6daS9Od16dEjKZeTDIOZEiIuzOTH0sD70tKXUrXKPPoAb9b4yXBEuvet9N2+tPg5EbJFhCsRfvBY+miRANkiwtUI7xIhW8TzUwrgemj+ruVwVEqe4Q3NiXvdRxge3Zf0Mym4i1PcvKH7lbC9LU1NtY8wnT561zSRaPXEZ7AK2CLCifn51hFGIkcB3rnDnAixw030w1urgdscLm90t2AuJ5VKrSMsFo+2lm08/+f3xM3sp0Gc+SohtrfC8+MZra62j/QNEUrSH7W/bwR05p4KkXdN+1WxKO3sNP/Z/fvsjvYZQuxXuVz7143gNSLOcf/phzVJkjE+o+LupozxmaMN4sKstDCraHhEiUhM+y9rCg8M6Ze9HUnPZexeUXF3U9HwiKKXRzX/7ocMkxDRrQdP1nTjynUlIjE9eLImaeH439Nj08fXe/rXr1qa+kQPf/xGk9duHl8ncnlE1Vc1QmTXFL2UiMRV+u0nVV/VNPHWO6d+/sV7dxkSW0ScT2wxJSIxSdJ2taJoeOS/3dVUw/Vehzh1LcnQCNGZ+vJGKIDroeWZNa93P7erFaXHprVdtTRxaUzpsWkVd8tanf1Mxd1pTb2dVDQ8cnwdY3xG6bFpJSKxhl3YJrdfqi9vGKTgLk5x83iITRlG6wP5Kyvtjy+exilubBGbPTWEgvefws0nwxcvorp6NYgzLxJie9/z/Pimbdg5fkDl2bPJgM7cUy+BeNfUb5p/wgIeR4iECEIEQIiAR3BAvx+trLBrSohwXWfHCdEHOKDvkbRcvO9tSTlWASECgcebNQCvEbuXzWYNcRYOGt3OZDJFtogACBEgRACECBAiAEIECBEAIfbC4OAgQ2CuhOi2w8NDhsBcL5SvP32RyWQ6un4+n1elUjm+nEqllEqlOrqNbDbbcHlubk7xeLyv52hZlgqFQtezdbp8q9myRQRAiAAhAiBEgBABECLgV74+fJHP5zu6/t7eXsPlra0tWZbl6HdYX1/X0NBQX8/x4ODA0WydLk+Ife7/xwS7UavVVKvVHN3GybiZ7fksz66ph/X7lqdbQTt1zI+P11chNtsFCoKgnTrmx8fr613TTk9PM01Ttm0fX47FYh2fnlYulxsuJ5NJjY6O9uTxnbyvTh/vWdm2LdM0u74vp8u3eryE6NMQLctqCDEej3d8G81C7NW5phcVomVZjkJyunwQQuTwBUCIAAgRIEQAhAgQIgBCBAgRACEChAiAEAFCBECIACECIESAEAEQIkCIAAgRIEQAhAgQIgBCBAgRACEChAigG77+k/udfrfhyS+xsW3b8fcjMtvmX03HXAMUYqFQcLS8aZqnvrMB5zNbp8uzawqAEAFCDIigfvMwcyVETwnqNw8zV0IECBEAIQKEyAgAQgRAiAAhAiBEgBABECJAiAAIEfCeAUbQW6ZpqlKpXMh9lcvlntyubdusSELs/xAvSq9CBLumQCCE6vW6p36hbDZbZ7Wg1zKZTIgtIgBC9Bv+BAUhwgP4ExSECIAQAUIEQIgAIQIgRMBfPHdmDcAWEQAhAoQIgBABQgRAiAAhAiBEAIQIECKAI/8CxxiVb+OY1TMAAAAASUVORK5CYII=;" vertex="1" parent="1">
          <mxGeometry x="260" y="929.47" width="130" height="80.53" as="geometry" />
        </mxCell>
        <mxCell id="9CJe2XgVRx3kueUHRz7F-12" value="" style="shape=mxgraph.cisco.people.running_man;html=1;pointerEvents=1;dashed=0;fillColor=#036897;strokeColor=#ffffff;strokeWidth=2;verticalLabelPosition=bottom;verticalAlign=top;align=center;outlineConnect=0;shadow=1;" vertex="1" parent="1">
          <mxGeometry x="-270" y="1220" width="83" height="93" as="geometry" />
        </mxCell>
        <mxCell id="9CJe2XgVRx3kueUHRz7F-17" value="" style="shape=mxgraph.cisco.people.running_man;html=1;pointerEvents=1;dashed=0;fillColor=#036897;strokeColor=#ffffff;strokeWidth=2;verticalLabelPosition=bottom;verticalAlign=top;align=center;outlineConnect=0;shadow=1;" vertex="1" parent="1">
          <mxGeometry x="-110" y="1313" width="83" height="93" as="geometry" />
        </mxCell>
        <mxCell id="9CJe2XgVRx3kueUHRz7F-18" value="" style="shape=mxgraph.cisco.people.running_man;html=1;pointerEvents=1;dashed=0;fillColor=#036897;strokeColor=#ffffff;strokeWidth=2;verticalLabelPosition=bottom;verticalAlign=top;align=center;outlineConnect=0;shadow=1;" vertex="1" parent="1">
          <mxGeometry x="60" y="1240" width="83" height="93" as="geometry" />
        </mxCell>
        <mxCell id="9CJe2XgVRx3kueUHRz7F-19" value="" style="ellipse;shape=cloud;whiteSpace=wrap;html=1;shadow=1;fillColor=none;" vertex="1" parent="1">
          <mxGeometry x="-820" y="890" width="450" height="180" as="geometry" />
        </mxCell>
        <mxCell id="9CJe2XgVRx3kueUHRz7F-20" value="" style="ellipse;shape=cloud;whiteSpace=wrap;html=1;shadow=1;fillColor=none;" vertex="1" parent="1">
          <mxGeometry x="-420" y="870" width="450" height="180" as="geometry" />
        </mxCell>
        <mxCell id="9CJe2XgVRx3kueUHRz7F-21" value="" style="ellipse;shape=cloud;whiteSpace=wrap;html=1;shadow=1;fillColor=none;" vertex="1" parent="1">
          <mxGeometry x="-40" y="870" width="450" height="180" as="geometry" />
        </mxCell>
        <mxCell id="9CJe2XgVRx3kueUHRz7F-22" value="" style="shape=mxgraph.cisco.people.running_man;html=1;pointerEvents=1;dashed=0;fillColor=#036897;strokeColor=#ffffff;strokeWidth=2;verticalLabelPosition=bottom;verticalAlign=top;align=center;outlineConnect=0;shadow=1;" vertex="1" parent="1">
          <mxGeometry x="200" y="1300" width="83" height="93" as="geometry" />
        </mxCell>
        <mxCell id="9CJe2XgVRx3kueUHRz7F-23" value="" style="shape=mxgraph.cisco.people.running_man;html=1;pointerEvents=1;dashed=0;fillColor=#036897;strokeColor=#ffffff;strokeWidth=2;verticalLabelPosition=bottom;verticalAlign=top;align=center;outlineConnect=0;shadow=1;" vertex="1" parent="1">
          <mxGeometry x="350" y="1220" width="83" height="93" as="geometry" />
        </mxCell>
        <mxCell id="9CJe2XgVRx3kueUHRz7F-26" value="" style="shape=process;whiteSpace=wrap;html=1;backgroundOutline=1;shadow=1;fillColor=none;" vertex="1" parent="1">
          <mxGeometry x="-660" y="340" width="960" height="140" as="geometry" />
        </mxCell>
        <mxCell id="9CJe2XgVRx3kueUHRz7F-28" value="" style="edgeStyle=segmentEdgeStyle;endArrow=classic;html=1;exitX=0.959;exitY=1.007;exitDx=0;exitDy=0;exitPerimeter=0;fillColor=#e51400;strokeColor=#B20000;rounded=1;" edge="1" parent="1" source="9CJe2XgVRx3kueUHRz7F-26">
          <mxGeometry width="50" height="50" relative="1" as="geometry">
            <mxPoint x="-40" y="530" as="sourcePoint" />
            <mxPoint x="-640" y="600" as="targetPoint" />
            <Array as="points">
              <mxPoint x="261" y="530" />
              <mxPoint x="-640" y="530" />
            </Array>
          </mxGeometry>
        </mxCell>
        <mxCell id="9CJe2XgVRx3kueUHRz7F-29" value="" style="shape=process;whiteSpace=wrap;html=1;backgroundOutline=1;shadow=1;fillColor=none;size=0.09375;" vertex="1" parent="1">
          <mxGeometry x="-660" y="610" width="960" height="140" as="geometry" />
        </mxCell>
      </root>
    </mxGraphModel>
  </diagram>
</mxfile>
